# xmcd
#
# Track frame offsets: 
#        150
#        16408
#        29996
#        44521
#        59882
#        76155
#        95835
#        111236
#        127004
#        147981
#        165816
#        181686
#        200014
#        214791
#
# Disc length: 3082 seconds
#
# Revision: 0
# Processed by: cddbd v1.5.2PL0 Copyright (c) Steve Scherf et al.
# Submitted via: ExactAudioCopy v1.0b3
#
DISCID=d00c080e
DTITLE=Norbert Schneider - Medicate my Blues Away
DYEAR=2011
DGENRE=Blues
TTITLE0=Blind Willie McPide
TTITLE1=Medicate my Blues Away
TTITLE2=I Met You in My Dreams
TTITLE3=Take Me With You
TTITLE4=Secret Door
TTITLE5=Grain of Sand
TTITLE6=The Woman Can Stay But The Phone Got to Go
TTITLE7=Lipstick Traces (On a Cigarette)
TTITLE8=Chocolate Elvis
TTITLE9=The Heat is On
TTITLE10=Hey Pretty Thing I Wanna MhM You
TTITLE11=Can I Have Your Phonenumber
TTITLE12=Rosie Let Me Take Your Hand
TTITLE13=Lousiana
EXTD=
EXTT0=
EXTT1=
EXTT2=
EXTT3=
EXTT4=
EXTT5=
EXTT6=
EXTT7=
EXTT8=
EXTT9=
EXTT10=
EXTT11=
EXTT12=
EXTT13=
PLAYORDER=
